<svg id="Layer_1" data-name="Layer 1" xmlns="http://www.w3.org/2000/svg" viewBox="0 0 249.44 94.36"><defs><style>.cls-1{fill:#6d6d6d;}</style></defs><path d="M45.56,33.53a9.7,9.7,0,0,0,4.09-8.17c0-6.43-5.19-10.27-13.88-10.27H18v38.6H36.78c9.44,0,14.64-3.82,14.64-10.76A9.72,9.72,0,0,0,45.56,33.53Zm-10.8-3H27.13V22.64h7.63c3.76,0,5.66,1.31,5.66,3.91S38.52,30.5,34.76,30.5Zm-7.63,7.34h9c4,0,6,1.37,6,4.17,0,1.77-.63,4.12-6,4.12h-9Z"/><rect x="56.92" y="15.09" width="9.18" height="38.6"/><path d="M91.91,22.86a11.2,11.2,0,0,1,8.76,4.07l.35.39,6-5.84-.28-.35c-3.54-4.37-8.79-6.69-15.19-6.69-11.55,0-19.94,8.39-19.94,20s8.33,19.94,19.79,19.94A24,24,0,0,0,106,49.44l.19-.15v-16H97.67V44.51a11.85,11.85,0,0,1-5.86,1.41c-6.46,0-11-4.74-11-11.53S85.29,22.86,91.91,22.86Z"/><polygon points="133.75 15.09 124.57 15.09 124.57 53.69 151.47 53.69 151.47 45.6 133.75 45.6 133.75 15.09"/><rect x="155.37" y="15.09" width="9.18" height="38.6"/><polygon points="172.23 53.69 181.41 53.69 181.41 39.99 197.77 39.99 197.77 32.01 181.41 32.01 181.41 23.07 199.94 23.07 199.94 15.09 172.23 15.09 172.23 53.69"/><polygon points="213.92 45.7 213.92 38 230.33 38 230.33 30.23 213.92 30.23 213.92 23.07 232.5 23.07 232.5 15.09 204.79 15.09 204.79 53.69 233.16 53.69 233.16 45.7 213.92 45.7"/><path class="cls-1" d="M26.2,77.09v1.74H17.79V67.63H26v1.74h-6.1v2.92h5.41V74H19.87v3.09Z"/><path class="cls-1" d="M44.63,67.63v11.2H42.92l-6.18-7.58v7.58H34.67V67.63h1.72l6.17,7.59V67.63Z"/><path class="cls-1" d="M56.07,69.39H52.35V67.63h9.51v1.76H58.15v9.44H56.07Z"/><path class="cls-1" d="M78,77.09v1.74H69.58V67.63h8.18v1.74H71.67v2.92h5.41V74H71.67v3.09Z"/><path class="cls-1" d="M93.8,78.83l-2.29-3.28a3.24,3.24,0,0,1-.44,0H88.55v3.26H86.46V67.63h4.61c3,0,4.77,1.5,4.77,4a3.57,3.57,0,0,1-2.38,3.53L96,78.83ZM91,69.39H88.55v4.47H91c1.82,0,2.77-.84,2.77-2.24S92.8,69.39,91,69.39Z"/><path class="cls-1" d="M106.43,69.39h-3.71V67.63h9.51v1.76h-3.72v9.44h-2.08Z"/><path class="cls-1" d="M126.66,76.24h-5.6L120,78.83h-2.14l5-11.2h2.05L130,78.83h-2.18ZM126,74.61l-2.11-4.9-2.1,4.9Z"/><path class="cls-1" d="M137.54,67.63h2.08v11.2h-2.08Z"/><path class="cls-1" d="M158.76,67.63v11.2H157l-6.17-7.58v7.58H148.8V67.63h1.71l6.18,7.59V67.63Z"/><path class="cls-1" d="M178.21,78.83V71.41l-3.68,6.14h-.93l-3.68-6v7.33h-2V67.63h1.71l4.45,7.43,4.37-7.43h1.72v11.2Z"/><path class="cls-1" d="M197.76,77.09v1.74h-8.4V67.63h8.18v1.74h-6.1v2.92h5.41V74h-5.41v3.09Z"/><path class="cls-1" d="M216.2,67.63v11.2h-1.72l-6.17-7.58v7.58h-2.07V67.63H208l6.18,7.59V67.63Z"/><path class="cls-1" d="M227.63,69.39h-3.71V67.63h9.51v1.76h-3.72v9.44h-2.08Z"/></svg>